<svg width="20px" height="19px" viewBox="0 0 20 19" version="1.1" xmlns="http://www.w3.org/2000/svg" xmlns:xlink="http://www.w3.org/1999/xlink">
    <g id="Page-1" stroke="none" stroke-width="1" fill="none" fill-rule="evenodd">
        <g id="clock" transform="translate(0.234626, 0.070891)" fill="#959DA1">
            <path d="M16.0028514,9.9931348 C16.0028514,6.67412886 13.3128659,3.98481393 9.9932671,3.98481393 C6.6747641,3.98481393 3.98494624,6.67429649 3.98494624,9.9931348 C3.98494624,13.3122695 6.67506053,16.0027191 9.9932671,16.0027191 C13.3125694,16.0027191 16.0028514,13.3124371 16.0028514,9.9931348 Z M17.9874669,9.9931348 C17.9874669,14.40851 14.4086423,17.9873346 9.9932671,17.9873346 C5.57893229,17.9873346 2.00033077,14.4082869 2.00033077,9.9931348 C2.00033077,5.57816824 5.57874662,2.00019846 9.9932671,2.00019846 C14.408828,2.00019846 17.9874669,5.57794522 17.9874669,9.9931348 Z" id="Stroke-1" fill-rule="nonzero"></path>
            <path d="M7.00635901,10 C6.45832258,10 5.98936008,10.4631707 5.98936008,11.0112071 C5.98936008,11.5592435 6.45832258,12.0052205 7.00635901,12.0052205 L10.9986339,12.0052205 L10.9986339,6.05661343 C10.9921743,5.50861507 10.5479984,5.00760975 10,5.0140693 C9.45200164,5.02052884 9.0019776,5.57883285 9.00843714,6.12683121 L9.00843714,10 L7.00635901,10 Z" id="Stroke-3" fill-rule="nonzero"></path>
            <rect id="Rectangle-2" stroke="#959DA1" x="7.5" y="0.5" width="5" height="1" rx="0.5"></rect>
            <rect id="Rectangle-2" stroke="#959DA1" transform="translate(18.147958, 4.527561) rotate(53.000000) translate(-18.147958, -4.527561) " x="16.847958" y="4.52756078" width="2.5999999" height="1" rx="0.5"></rect>
            <rect id="Rectangle" stroke="#959DA1" x="9.5" y="1.5" width="1" height="1"></rect>
            <rect id="Rectangle-3" stroke="#959DA1" transform="translate(17.227199, 5.251363) rotate(53.000000) translate(-17.227199, -5.251363) " x="17.1621989" y="4.9853065" width="1" height="1"></rect>
            <rect id="Rectangle-2" stroke="#959DA1" transform="translate(1.867819, 4.517376) rotate(-53.000000) translate(-1.867819, -4.517376) " x="0.568050671" y="4.51737577" width="2.59953658" height="1" rx="0.5"></rect>
            <rect id="Rectangle-3" stroke="#959DA1" transform="translate(2.806355, 5.250727) rotate(-53.000000) translate(-2.806355, -5.250727) " x="2.74135516" y="4.98572702" width="1" height="1"></rect>
        </g>
    </g>
</svg>