<svg width="24px" height="24px" viewBox="-2 0 22 16" version="1.1" xmlns="http://www.w3.org/2000/svg" xmlns:xlink="http://www.w3.org/1999/xlink">
    <g id="Page-1" stroke="none" stroke-width="1" fill="none" fill-rule="evenodd">
        <g id="heart" fill="#42526e" fill-rule="nonzero">
            <path d="M14.5867639,7.84326786 C15.285806,7.04963953 15.6090299,6.40480148 15.7500171,5.46359249 C15.7843746,4.36045542 15.4050743,3.61623001 14.6727163,3.05222407 C14.0612051,2.58128503 13.2202211,2.29463402 12.7956968,2.29463153 C11.8173742,2.29315847 11.0665998,2.56128889 10.442442,3.10688942 L9.00008036,4.57018603 C8.41472765,3.86585598 7.93448864,3.36750907 7.55936333,3.0751453 C6.66448479,2.3776982 6.31131575,2.32951121 5.23497581,2.29123802 C3.63634162,2.29123802 2.24799907,3.74649689 2.24799907,5.25794672 C2.24799907,5.88102485 2.38234433,6.3108274 2.73486866,6.8365099 C3.23627559,7.58420533 7.37999241,11.5550819 9.01977717,13.191782 C10.8464348,11.3450096 14.1835842,8.30100102 14.5867639,7.84326786 Z M8.9789722,1.3676813 C10.0220417,0.455893764 11.2953902,0.00113200059 12.7990176,0.00339600177 C14.2658687,0.00339600177 18.2118896,1.3676813 17.9910978,5.67657513 C17.4871743,9.4388302 14.8172477,10.3442912 10.1520513,15.2835095 C9.13986604,16.2873399 8.77997794,16.1946849 7.87765462,15.2656859 C2.60274421,9.7584967 3.19459881e-14,8.60486729 0,5.25794672 C0,2.60990093 2.27108917,0 5.23497581,0 C6.92485526,0.0580474735 8.17285405,0.513941237 8.9789722,1.3676813 Z" id="Shape"></path>
        </g>
    </g>
</svg>