<svg xmlns="http://www.w3.org/2000/svg" version="1.1" x="0px" y="0px" viewBox="0 0 48 60"
     enable-background="new 0 0 64 64" xml:space="preserve">
    <g fill="#FFFFFF">
        <path d="M44,16h-1.446L34,10.868V8c0-1.104-0.896-2-2-2s-2,0.896-2,2v2.868L21.446,16H18c-0.716,0-1.377,0.383-1.734,1.003   s-0.354,1.385,0.006,2.003c1.402,2.408,5.239,9.2,6.133,11.673c0.475,1.313,1.207,5.242,1.54,7.163l-5.842,17.524   c-0.203,0.61-0.101,1.28,0.275,1.802C18.753,57.691,19.357,58,20,58h24c0.643,0,1.246-0.309,1.622-0.831   c0.376-0.521,0.479-1.191,0.275-1.802l-5.832-17.496L43.64,20H44c1.103,0,2,0.897,2,2v8c0,1.104,0.896,2,2,2s2-0.896,2-2v-8   C50,18.691,47.309,16,44,16z M32,14.333L34.779,16h-5.559L32,14.333z M21.442,20h18.119l-3.2,16H27.68   c-0.365-2.014-0.995-5.246-1.513-6.68C25.401,27.204,23.079,22.919,21.442,20z M41.226,54H22.775l4.667-14h9.117L41.226,54z"/>
    </g>
</svg>