<?xml version="1.0" encoding="UTF-8"?>
<svg width="700pt" height="700pt" version="1.1" viewBox="0 0 700 700" xmlns="http://www.w3.org/2000/svg" xmlns:xlink="http://www.w3.org/1999/xlink">
 <g>
  <path d="m350 358.75c82.023 0 148.75-66.727 148.75-148.75s-66.727-148.75-148.75-148.75-148.75 66.727-148.75 148.75 66.727 148.75 148.75 148.75zm0-280c72.371 0 131.25 58.879 131.25 131.25s-58.879 131.25-131.25 131.25-131.25-58.879-131.25-131.25 58.879-131.25 131.25-131.25z"/>
  <path d="m524.19 330.43c-1.75-1.918-4.3242-2.9766-6.8672-2.8281-2.5977 0.13281-4.9961 1.3906-6.5625 3.4648-38.449 50.961-97.051 80.188-160.76 80.188-63.719 0-122.32-29.227-160.75-80.184-1.5664-2.0664-3.9727-3.3438-6.5625-3.4648-2.7031-0.17578-5.1094 0.91016-6.8672 2.8281-40.023 43.66-62.066 100.33-62.066 159.57 0 4.8398 3.9219 8.75 8.75 8.75h455c4.8398 0 8.75-3.9102 8.75-8.75 0-59.238-22.043-115.9-62.062-159.57zm-392.76 150.82c1.9062-48.238 19.617-94.211 50.504-131.24 41.73 50.172 102.39 78.742 168.07 78.742s126.33-28.57 168.07-78.742c30.887 37.039 48.598 83.012 50.504 131.24z"/>
 </g>
</svg>
